<mxfile host="app.diagrams.net" modified="2023-08-22T05:04:48.954Z" agent="Mozilla/5.0 (Windows NT 10.0; Win64; x64) AppleWebKit/537.36 (KHTML, like Gecko) Chrome/115.0.0.0 Safari/537.36 Edg/115.0.1901.203" etag="GIkhGPmN0A37lACQMOv1" version="21.6.8" type="github">
  <diagram name="第 1 页" id="KOBCD-L_KueGaR97EV3R">
    <mxGraphModel dx="1221" dy="743" grid="1" gridSize="10" guides="1" tooltips="1" connect="1" arrows="1" fold="1" page="1" pageScale="1" pageWidth="827" pageHeight="1169" math="0" shadow="0">
      <root>
        <mxCell id="0" />
        <mxCell id="1" parent="0" />
        <mxCell id="GkL3AjHemEdyZRR-p_0v-1" value="Head" style="rounded=0;whiteSpace=wrap;html=1;" vertex="1" parent="1">
          <mxGeometry x="50" y="530" width="90" height="40" as="geometry" />
        </mxCell>
        <mxCell id="GkL3AjHemEdyZRR-p_0v-3" value="" style="html=1;shadow=0;dashed=0;align=center;verticalAlign=middle;shape=mxgraph.arrows2.arrow;dy=0.6;dx=40;direction=north;notch=0;fillColor=#d5e8d4;strokeColor=none;" vertex="1" parent="1">
          <mxGeometry x="80" y="580" width="30" height="90" as="geometry" />
        </mxCell>
        <mxCell id="GkL3AjHemEdyZRR-p_0v-4" value="&lt;font style=&quot;font-size: 18px;&quot;&gt;入队&lt;/font&gt;" style="text;html=1;strokeColor=none;fillColor=none;align=center;verticalAlign=middle;whiteSpace=wrap;rounded=0;" vertex="1" parent="1">
          <mxGeometry x="30" y="620" width="60" height="30" as="geometry" />
        </mxCell>
        <mxCell id="GkL3AjHemEdyZRR-p_0v-10" value="&lt;h1&gt;&lt;font style=&quot;font-size: 18px;&quot;&gt;head == null&lt;/font&gt;&lt;/h1&gt;&lt;p style=&quot;font-size: 16px;&quot;&gt;&lt;font style=&quot;font-size: 16px;&quot;&gt;s = new SNode(e);&lt;/font&gt;&lt;/p&gt;&lt;p style=&quot;font-size: 16px;&quot;&gt;&lt;font style=&quot;font-size: 16px;&quot;&gt;s.next = null;&lt;/font&gt;&lt;/p&gt;&lt;p style=&quot;font-size: 16px;&quot;&gt;&lt;font style=&quot;font-size: 16px;&quot;&gt;s.mode = 1;&lt;/font&gt;&lt;/p&gt;" style="text;html=1;strokeColor=none;fillColor=none;spacing=5;spacingTop=-20;whiteSpace=wrap;overflow=hidden;rounded=0;labelBackgroundColor=#49e45b;" vertex="1" parent="1">
          <mxGeometry x="150" y="530" width="190" height="140" as="geometry" />
        </mxCell>
      </root>
    </mxGraphModel>
  </diagram>
</mxfile>
